{"title":"Off The Map 2003 DVDRip XViD-Reupload by titler","uid":8431199,"size":746211080,"categoryP":"video","categoryS":"movies","magnet":"?xt=urn:btih:d3d616409e6306c12f5cd9a8cb31e4be13c2383b&amp;dn=Off+The+Map+2003+DVDRip+XViD-Reupload+by+titler&amp;tr=udp%3A%2F%2Ftracker.openbittorrent.com%3A80&amp;tr=udp%3A%2F%2Fopen.demonii.com%3A1337&amp;tr=udp%3A%2F%2Ftracker.coppersurfer.tk%3A6969&amp;tr=udp%3A%2F%2Fexodus.desync.com%3A6969","seeders":0,"leechers":0,"uploader":"movieZ.freak","files":5,"time":1367500101,"description":"SOURCE: This is reupload: 'Off The Map 2003 LiMiTED DVDRip XViD-ALLiANCE'\n\n &lt;a href=&quot;\nhttp://www.imdb.com/title/tt0332285/&quot; rel=&quot;nofollow&quot; target=&quot;_NEW&quot;&gt;\nhttp://www.imdb.com/title/tt0332285/&lt;/a&gt;\n\n &lt;a href=&quot;\nhttp://www.rottentomatoes.com/m/off-the-map/&quot; rel=&quot;nofollow&quot; target=&quot;_NEW&quot;&gt;\nhttp://www.rottentomatoes.com/m/off-the-map/&lt;/a&gt;\n\n\n\n-SAMPLE: Yes\n\n-SUBTITLE: English, Croatian\n\n-LANGUAGE: English\n\n\nDIRECTOR: Campbell Scott\n\n\nCAST:\n--------\nJoan Allen, Sam Elliott, Valentina de Angelis, J.K. Simmons, Jim True-Frost, Amy Brenneman\n\n\nPLOT:\n---------\nCampbell Scott directed this offbeat comedy drama about a free-thinking family who find themselves confronted by the more regimented outside world. Bo Groden (Valentina d'Angelis) is an 11-year-old girl growing up as part of a decidedly eccentric family in a small town in New Mexico. Bo's father, Charley (Sam Elliott), has fallen into a deep depression for reasons no one can understand, while her mother, Arlene (Joan Allen), holds the household together, raising most of their food in her vegetable garden, which she prefers to tend in the nude. Bo, meanwhile, satisfies her sweet tooth by writing candy companies claiming to have had problems with their products, which usually results in a box of fresh goodies. While the Grodens get by through living within simple means, one day an Internal Revenue Agent appears at their door, wanting to know why the family hasn't paid income tax for several years -- and not believing there has been no appreciable income for so many years.\n\n\nGeneral\n------------\nFormat : AVI\nFormat/Info : Audio Video Interleave\nFile size : 700 MiB\nDuration : 1h 50mn\nOverall bit rate mode : Variable\nOverall bit rate : 883 Kbps\nWriting application : Nandub v1.0rc2\nWriting library : Nandub build 1853\n\n\nVideo\n-----------\nFormat : MPEG-4 Visual\nFormat settings, BVOP : Yes\nFormat settings, QPel : No\nFormat settings, GMC : No warppoints\nFormat settings, Matrix : Default (H.263)\nCodec ID : XVID\nCodec ID/Hint : XviD\nDuration : 1h 50mn\nBit rate : 728 Kbps\nWidth : 576 pixels\nHeight : 304 pixels\nDisplay aspect ratio : 1.895\nFrame rate : 23.976 fps\nColor space : YUV\nChroma subsampling : 4:2:0\nBit depth : 8 bits\nScan type : Progressive\nCompression mode : Lossy\nBits/(Pixel*Frame) : 0.173\nStream size : 577 MiB (82%)\n\n\nAudio\n--------\nFormat : MPEG Audio\nFormat version : Version 1\nFormat profile : Layer 3\nMode : Joint stereo\nMode extension : MS Stereo\nCodec ID : 55\nCodec ID/Hint : MP3\nDuration : 1h 50mn\nBit rate mode : Variable\nBit rate : 142 Kbps\nChannel(s) : 2 channels\nSampling rate : 48.0 KHz\nCompression mode : Lossy\nStream size : 112 MiB (16%)\nAlignment : Aligned on interleaves\nInterleave, duration : 24 ms (0.58 video frame)\nInterleave, preload duration : 124 ms\nWriting library : LAME3.91","torrent":{"xt":"urn:btih:d3d616409e6306c12f5cd9a8cb31e4be13c2383b","amp;dn":"Off+The+Map+2003+DVDRip+XViD-Reupload+by+titler","amp;tr":["udp%3A%2F%2Ftracker.openbittorrent.com%3A80","udp%3A%2F%2Fopen.demonii.com%3A1337","udp%3A%2F%2Ftracker.coppersurfer.tk%3A6969","udp%3A%2F%2Fexodus.desync.com%3A6969"],"infoHash":"d3d616409e6306c12f5cd9a8cb31e4be13c2383b","infoHashBuffer":{"type":"Buffer","data":[211,214,22,64,158,99,6,193,47,92,217,168,203,49,228,190,19,194,56,59]},"announce":[],"urlList":[]}}